<svg width="146" height="39" viewBox="0 0 146 39" fill="none" xmlns="http://www.w3.org/2000/svg">
<path fill-rule="evenodd" clip-rule="evenodd" d="M0.419434 18V9C0.419434 6.51472 1.29811 4.3934 3.05547 2.63604C4.81283 0.87868 6.93415 0 9.41943 0H136.419C138.905 0 141.026 0.87868 142.783 2.63604C144.541 4.3934 145.419 6.51472 145.419 9V30C145.419 32.4853 144.541 34.6066 142.783 36.364C141.026 38.1213 138.905 39 136.419 39H9.41943C6.93415 39 4.81283 38.1213 3.05547 36.364C1.29811 34.6066 0.419434 32.4853 0.419434 30V18Z" fill="#102142"/>
<path d="M20.1074 21.416C20.1074 20.328 20.3528 19.352 20.8434 18.488C21.3341 17.6133 22.0008 16.9307 22.8434 16.44C23.6968 15.9493 24.6408 15.704 25.6754 15.704C26.8914 15.704 27.9528 15.9973 28.8594 16.584C29.7661 17.1707 30.4274 18.0027 30.8434 19.08H29.0994C28.7901 18.408 28.3421 17.8907 27.7554 17.528C27.1794 17.1653 26.4861 16.984 25.6754 16.984C24.8968 16.984 24.1981 17.1653 23.5794 17.528C22.9608 17.8907 22.4754 18.408 22.1234 19.08C21.7714 19.7413 21.5954 20.52 21.5954 21.416C21.5954 22.3013 21.7714 23.08 22.1234 23.752C22.4754 24.4133 22.9608 24.9253 23.5794 25.288C24.1981 25.6507 24.8968 25.832 25.6754 25.832C26.4861 25.832 27.1794 25.656 27.7554 25.304C28.3421 24.9413 28.7901 24.424 29.0994 23.752H30.8434C30.4274 24.8187 29.7661 25.6453 28.8594 26.232C27.9528 26.808 26.8914 27.096 25.6754 27.096C24.6408 27.096 23.6968 26.856 22.8434 26.376C22.0008 25.8853 21.3341 25.208 20.8434 24.344C20.3528 23.48 20.1074 22.504 20.1074 21.416ZM36.8348 27.144C36.0135 27.144 35.2668 26.9573 34.5948 26.584C33.9335 26.2107 33.4108 25.6827 33.0268 25C32.6535 24.3067 32.4668 23.5067 32.4668 22.6C32.4668 21.704 32.6588 20.9147 33.0428 20.232C33.4375 19.5387 33.9708 19.0107 34.6428 18.648C35.3148 18.2747 36.0668 18.088 36.8988 18.088C37.7308 18.088 38.4828 18.2747 39.1548 18.648C39.8268 19.0107 40.3548 19.5333 40.7388 20.216C41.1335 20.8987 41.3308 21.6933 41.3308 22.6C41.3308 23.5067 41.1281 24.3067 40.7228 25C40.3281 25.6827 39.7895 26.2107 39.1068 26.584C38.4241 26.9573 37.6668 27.144 36.8348 27.144ZM36.8348 25.864C37.3575 25.864 37.8481 25.7413 38.3068 25.496C38.7655 25.2507 39.1335 24.8827 39.4108 24.392C39.6988 23.9013 39.8428 23.304 39.8428 22.6C39.8428 21.896 39.7041 21.2987 39.4268 20.808C39.1495 20.3173 38.7868 19.9547 38.3388 19.72C37.8908 19.4747 37.4055 19.352 36.8828 19.352C36.3495 19.352 35.8588 19.4747 35.4108 19.72C34.9735 19.9547 34.6215 20.3173 34.3548 20.808C34.0881 21.2987 33.9548 21.896 33.9548 22.6C33.9548 23.3147 34.0828 23.9173 34.3388 24.408C34.6055 24.8987 34.9575 25.2667 35.3948 25.512C35.8321 25.7467 36.3121 25.864 36.8348 25.864ZM53.7892 18.072C54.4719 18.072 55.0799 18.216 55.6132 18.504C56.1465 18.7813 56.5679 19.2027 56.8772 19.768C57.1865 20.3333 57.3412 21.0213 57.3412 21.832V27H55.9012V22.04C55.9012 21.1653 55.6825 20.4987 55.2452 20.04C54.8185 19.5707 54.2372 19.336 53.5012 19.336C52.7439 19.336 52.1412 19.5813 51.6932 20.072C51.2452 20.552 51.0212 21.2507 51.0212 22.168V27H49.5812V22.04C49.5812 21.1653 49.3625 20.4987 48.9252 20.04C48.4985 19.5707 47.9172 19.336 47.1812 19.336C46.4239 19.336 45.8212 19.5813 45.3732 20.072C44.9252 20.552 44.7012 21.2507 44.7012 22.168V27H43.2452V18.232H44.7012V19.496C44.9892 19.0373 45.3732 18.6853 45.8532 18.44C46.3439 18.1947 46.8825 18.072 47.4692 18.072C48.2052 18.072 48.8559 18.2373 49.4212 18.568C49.9865 18.8987 50.4079 19.384 50.6852 20.024C50.9305 19.4053 51.3359 18.9253 51.9012 18.584C52.4665 18.2427 53.0959 18.072 53.7892 18.072ZM60.4816 16.808C60.2042 16.808 59.9696 16.712 59.7776 16.52C59.5856 16.328 59.4896 16.0933 59.4896 15.816C59.4896 15.5387 59.5856 15.304 59.7776 15.112C59.9696 14.92 60.2042 14.824 60.4816 14.824C60.7482 14.824 60.9722 14.92 61.1536 15.112C61.3456 15.304 61.4416 15.5387 61.4416 15.816C61.4416 16.0933 61.3456 16.328 61.1536 16.52C60.9722 16.712 60.7482 16.808 60.4816 16.808ZM61.1856 18.232V27H59.7296V18.232H61.1856ZM67.9391 18.072C69.0057 18.072 69.8697 18.3973 70.5311 19.048C71.1924 19.688 71.5231 20.616 71.5231 21.832V27H70.0831V22.04C70.0831 21.1653 69.8644 20.4987 69.4271 20.04C68.9897 19.5707 68.3924 19.336 67.6351 19.336C66.8671 19.336 66.2537 19.576 65.7951 20.056C65.3471 20.536 65.1231 21.2347 65.1231 22.152V27H63.6671V18.232H65.1231V19.48C65.4111 19.032 65.8004 18.6853 66.2911 18.44C66.7924 18.1947 67.3417 18.072 67.9391 18.072ZM77.5174 18.088C78.2748 18.088 78.9361 18.2533 79.5014 18.584C80.0774 18.9147 80.5041 19.3307 80.7814 19.832V18.232H82.2534V27.192C82.2534 27.992 82.0828 28.7013 81.7414 29.32C81.4001 29.9493 80.9094 30.44 80.2694 30.792C79.6401 31.144 78.9041 31.32 78.0614 31.32C76.9094 31.32 75.9494 31.048 75.1814 30.504C74.4134 29.96 73.9601 29.2187 73.8214 28.28H75.2614C75.4214 28.8133 75.7521 29.24 76.2534 29.56C76.7548 29.8907 77.3574 30.056 78.0614 30.056C78.8614 30.056 79.5121 29.8053 80.0134 29.304C80.5254 28.8027 80.7814 28.0987 80.7814 27.192V25.352C80.4934 25.864 80.0668 26.2907 79.5014 26.632C78.9361 26.9733 78.2748 27.144 77.5174 27.144C76.7388 27.144 76.0294 26.952 75.3894 26.568C74.7601 26.184 74.2641 25.6453 73.9014 24.952C73.5388 24.2587 73.3574 23.4693 73.3574 22.584C73.3574 21.688 73.5388 20.904 73.9014 20.232C74.2641 19.5493 74.7601 19.0213 75.3894 18.648C76.0294 18.2747 76.7388 18.088 77.5174 18.088ZM80.7814 22.6C80.7814 21.9387 80.6481 21.3627 80.3814 20.872C80.1148 20.3813 79.7521 20.008 79.2934 19.752C78.8454 19.4853 78.3494 19.352 77.8054 19.352C77.2614 19.352 76.7654 19.48 76.3174 19.736C75.8694 19.992 75.5121 20.3653 75.2454 20.856C74.9788 21.3467 74.8454 21.9227 74.8454 22.584C74.8454 23.256 74.9788 23.8427 75.2454 24.344C75.5121 24.8347 75.8694 25.2133 76.3174 25.48C76.7654 25.736 77.2614 25.864 77.8054 25.864C78.3494 25.864 78.8454 25.736 79.2934 25.48C79.7521 25.2133 80.1148 24.8347 80.3814 24.344C80.6481 23.8427 80.7814 23.2613 80.7814 22.6ZM92.5156 27.112C91.7796 27.112 91.1182 26.984 90.5316 26.728C89.9556 26.4613 89.5022 26.0987 89.1716 25.64C88.8409 25.1707 88.6702 24.632 88.6596 24.024H90.2116C90.2649 24.5467 90.4782 24.9893 90.8516 25.352C91.2356 25.704 91.7902 25.88 92.5156 25.88C93.2089 25.88 93.7529 25.7093 94.1476 25.368C94.5529 25.016 94.7556 24.568 94.7556 24.024C94.7556 23.5973 94.6382 23.2507 94.4036 22.984C94.1689 22.7173 93.8756 22.5147 93.5236 22.376C93.1716 22.2373 92.6969 22.088 92.0996 21.928C91.3636 21.736 90.7716 21.544 90.3236 21.352C89.8862 21.16 89.5076 20.8613 89.1876 20.456C88.8782 20.04 88.7236 19.4853 88.7236 18.792C88.7236 18.184 88.8782 17.6453 89.1876 17.176C89.4969 16.7067 89.9289 16.344 90.4836 16.088C91.0489 15.832 91.6942 15.704 92.4196 15.704C93.4649 15.704 94.3182 15.9653 94.9796 16.488C95.6516 17.0107 96.0302 17.704 96.1156 18.568H94.5156C94.4622 18.1413 94.2382 17.768 93.8436 17.448C93.4489 17.1173 92.9262 16.952 92.2756 16.952C91.6676 16.952 91.1716 17.112 90.7876 17.432C90.4036 17.7413 90.2116 18.1787 90.2116 18.744C90.2116 19.1493 90.3236 19.48 90.5476 19.736C90.7822 19.992 91.0649 20.1893 91.3956 20.328C91.7369 20.456 92.2116 20.6053 92.8196 20.776C93.5556 20.9787 94.1476 21.1813 94.5956 21.384C95.0436 21.576 95.4276 21.88 95.7476 22.296C96.0676 22.7013 96.2276 23.256 96.2276 23.96C96.2276 24.504 96.0836 25.016 95.7956 25.496C95.5076 25.976 95.0809 26.3653 94.5156 26.664C93.9502 26.9627 93.2836 27.112 92.5156 27.112ZM102.194 27.144C101.373 27.144 100.626 26.9573 99.9542 26.584C99.2929 26.2107 98.7702 25.6827 98.3862 25C98.0129 24.3067 97.8262 23.5067 97.8262 22.6C97.8262 21.704 98.0182 20.9147 98.4022 20.232C98.7969 19.5387 99.3302 19.0107 100.002 18.648C100.674 18.2747 101.426 18.088 102.258 18.088C103.09 18.088 103.842 18.2747 104.514 18.648C105.186 19.0107 105.714 19.5333 106.098 20.216C106.493 20.8987 106.69 21.6933 106.69 22.6C106.69 23.5067 106.488 24.3067 106.082 25C105.688 25.6827 105.149 26.2107 104.466 26.584C103.784 26.9573 103.026 27.144 102.194 27.144ZM102.194 25.864C102.717 25.864 103.208 25.7413 103.666 25.496C104.125 25.2507 104.493 24.8827 104.77 24.392C105.058 23.9013 105.202 23.304 105.202 22.6C105.202 21.896 105.064 21.2987 104.786 20.808C104.509 20.3173 104.146 19.9547 103.698 19.72C103.25 19.4747 102.765 19.352 102.242 19.352C101.709 19.352 101.218 19.4747 100.77 19.72C100.333 19.9547 99.9809 20.3173 99.7142 20.808C99.4475 21.2987 99.3142 21.896 99.3142 22.6C99.3142 23.3147 99.4422 23.9173 99.6982 24.408C99.9649 24.8987 100.317 25.2667 100.754 25.512C101.192 25.7467 101.672 25.864 102.194 25.864ZM112.429 27.144C111.607 27.144 110.861 26.9573 110.189 26.584C109.527 26.2107 109.005 25.6827 108.621 25C108.247 24.3067 108.061 23.5067 108.061 22.6C108.061 21.704 108.253 20.9147 108.637 20.232C109.031 19.5387 109.565 19.0107 110.237 18.648C110.909 18.2747 111.661 18.088 112.493 18.088C113.325 18.088 114.077 18.2747 114.749 18.648C115.421 19.0107 115.949 19.5333 116.333 20.216C116.727 20.8987 116.925 21.6933 116.925 22.6C116.925 23.5067 116.722 24.3067 116.317 25C115.922 25.6827 115.383 26.2107 114.701 26.584C114.018 26.9573 113.261 27.144 112.429 27.144ZM112.429 25.864C112.951 25.864 113.442 25.7413 113.901 25.496C114.359 25.2507 114.727 24.8827 115.005 24.392C115.293 23.9013 115.437 23.304 115.437 22.6C115.437 21.896 115.298 21.2987 115.021 20.808C114.743 20.3173 114.381 19.9547 113.933 19.72C113.485 19.4747 112.999 19.352 112.477 19.352C111.943 19.352 111.453 19.4747 111.005 19.72C110.567 19.9547 110.215 20.3173 109.949 20.808C109.682 21.2987 109.549 21.896 109.549 22.6C109.549 23.3147 109.677 23.9173 109.933 24.408C110.199 24.8987 110.551 25.2667 110.989 25.512C111.426 25.7467 111.906 25.864 112.429 25.864ZM123.111 18.072C124.178 18.072 125.042 18.3973 125.703 19.048C126.364 19.688 126.695 20.616 126.695 21.832V27H125.255V22.04C125.255 21.1653 125.036 20.4987 124.599 20.04C124.162 19.5707 123.564 19.336 122.807 19.336C122.039 19.336 121.426 19.576 120.967 20.056C120.519 20.536 120.295 21.2347 120.295 22.152V27H118.839V18.232H120.295V19.48C120.583 19.032 120.972 18.6853 121.463 18.44C121.964 18.1947 122.514 18.072 123.111 18.072Z" fill="#4A7DE3"/>
</svg>
